<?xml version="1.0" encoding="utf-8"?>
<!-- Generator: Adobe Illustrator 19.0.0, SVG Export Plug-In . SVG Version: 6.00 Build 0)  -->
<svg version="1.1" id="Layer_1" xmlns="http://www.w3.org/2000/svg" xmlns:xlink="http://www.w3.org/1999/xlink" x="0px" y="0px"
	 width="1400px" height="980px" viewBox="0 0 1400 980" enable-background="new 0 0 1400 980" xml:space="preserve">
<g id="XMLID_19_">
	<g id="XMLID_14_">
		<path id="XMLID_22_" fill="#AC6050" d="M839.5,498.2l-2.7-4.9c-0.4,0.2-0.6,0.4-0.6,0.4c0.1-0.2,3-4.4,1.5-29.3
			c-1.8-28.3-13.5-55-13.6-55.3l5.1-2.3c0.5,1.1,12.2,27.9,14.1,57.2C844.2,478.2,844.3,495.6,839.5,498.2z"/>
	</g>
	<path id="XMLID_21_" fill="#3C6C34" d="M942.6,353.6c-4.3-4.9-11-6.3-11-6.3c12-9.7,17.9-26.8,17.9-26.8l-3.8-3.1
		c11-13.2,11.1-43,11.1-43s-1.2,5.2-8.5,15.8c-7.3,10.6-22.1,14.6-22.1,14.1c0-0.5-1.9-3.8-1.9-3.8c-5.2,3.5-19.1,12.9-19.1,12.9
		l-4.2-9.7c0,0-13.9,9-27.3,24.7S854.2,346,854.2,346s1.2-11,12-19.3c10.8-8.3,25.7-33.4,25.7-33.4l-10.1-4.3
		c6.8-5.6,15.7-23.3,15.7-23.3h-5.2c8.3-12.7,6.4-31.1,6.4-31.1s-4.2,5.9-20.4,11c-15.1,4.7-20.8,11.7-21.5,12.6
		c9.7-12.2,8.3-38.2,8.3-38.2c-11.5-0.3-17.7,6.6-17.7,6.6v-29.6c0,0-2.4,5.9-7,0c-4.5-5.9-13.9-44.2-13.9-44.2s-9.4,38.3-13.9,44.2
		c-4.5,5.9-7,0-7,0v29.6c0,0-6.3-7-17.7-6.6c0,0-1.4,26,8.3,38.2c-0.7-0.9-6.4-7.9-21.5-12.6c-16.2-5-20.4-11-20.4-11
		s-1.9,18.4,6.4,31.1h-5.2c0,0,8.9,17.7,15.7,23.3l-10.1,4.3c0,0,15,25,25.7,33.4c10.8,8.4,12,19.3,12,19.3s-6.1-1.9-19.5-17.6
		c-13.4-15.7-27.3-24.7-27.3-24.7l-4.2,9.7c0,0-13.9-9.4-19.1-12.9c0,0-1.9,3.3-1.9,3.8c0,0.5-14.8-3.5-22.1-14.1
		c-7.3-10.6-8.5-15.8-8.5-15.8s0.2,29.7,11.1,43l-3.8,3.1c0,0,5.9,17,17.9,26.8c0,0-6.6,1.4-11,6.3c-4.3,4.9-10.4,3.5-10.4,3.5
		s11.1,17.4,27.3,17.9c0,0-1.6,3.3-5,3.8c0,0,8.9,6.5,21.6,6.6c12.7,0.2,17.5,2.6,17.5,2.6s-4.1,6.3-16.8,8.9
		c-12.7,2.6-16.4,8.5-16.4,8.5h5.4c0,0-16.5,8.5-23.8,17.7c0,0,7.8-3.8,19.5,2.6c11.7,6.4,25.4,6.3,25.4,6.3l-0.7,7.7
		c0,0,12.2-1.6,21.4-4.7c9.2-3.1,13.6-1.4,13.6-1.4l-2.6,13.9c0,0,9.6-0.3,16.6-6.6c7.1-6.3,8.1-9.9,8.1-9.9l0.6,6.3l14.8-28.1
		l14.8,28.1l0.6-6.3c0,0,1,3.6,8.1,9.9c7.1,6.3,16.6,6.6,16.6,6.6l-2.6-13.9c0,0,4.3-1.7,13.6,1.4c9.2,3.1,21.4,4.7,21.4,4.7
		l-0.7-7.7c0,0,13.7,0.2,25.4-6.3c11.7-6.4,19.5-2.6,19.5-2.6c-7.3-9.2-23.8-17.7-23.8-17.7h5.4c0,0-3.7-5.9-16.4-8.5
		c-12.7-2.6-16.8-8.9-16.8-8.9s4.8-2.4,17.5-2.6c12.7-0.2,21.6-6.6,21.6-6.6c-3.5-0.5-5-3.8-5-3.8c16.2-0.5,27.3-17.9,27.3-17.9
		S947,358.5,942.6,353.6z"/>
	<path id="XMLID_23_" fill="#95AA3B" d="M884.8,418.2c6.8,0.6,11.3,0.8,11.3,0.8s-4.5-0.5-11.2-1.5c-3.4-0.5-7.3-1.1-11.5-1.8
		c-4.2-0.7-8.6-1.5-13.1-2.4c-2.2-0.5-4.4-0.9-6.6-1.4c-2.2-0.5-4.3-1-6.3-1.6c-2-0.6-4-1.1-5.8-1.7c-1.8-0.6-3.6-1.1-5.1-1.7
		c-1.6-0.6-3-1.1-4.1-1.7c-0.6-0.3-1.1-0.5-1.6-0.8c-0.1-0.1-0.2-0.1-0.3-0.1c0.3-0.2,0.5-0.4,0.8-0.6c1.4-1.1,3.1-2.3,5-3.8
		c1.9-1.5,4.1-3.3,6.4-5.1c2.3-1.9,4.8-4,7.4-6.3c2.6-2.2,5.3-4.7,8.1-7.1c2.8-2.5,5.6-5.2,8.5-7.8c2.8-2.7,5.7-5.5,8.6-8.2
		c2.8-2.8,5.7-5.6,8.4-8.4c2.8-2.8,5.5-5.5,8-8.2c2.6-2.7,5.1-5.3,7.4-7.8c2.3-2.5,4.5-4.8,6.6-7c8.1-8.7,13.3-14.7,13.3-14.7
		s-5.4,5.8-13.8,14.3c-2.1,2.1-4.4,4.4-6.8,6.8c-2.4,2.4-5,4.9-7.7,7.5c-2.7,2.6-5.5,5.2-8.3,7.9c-2.8,2.7-5.8,5.4-8.7,8.1
		c-3,2.7-5.9,5.3-8.8,7.9c-3,2.5-5.8,5.1-8.7,7.5c-2.9,2.4-5.6,4.7-8.2,6.8c-2.7,2.1-5.2,4.1-7.5,6c-2.4,1.8-4.5,3.4-6.4,4.8
		c-1.9,1.5-3.7,2.6-5.1,3.6c-0.1,0.1-0.2,0.1-0.2,0.2c0-15.9,0-51.4-0.2-86.9c-0.1-23.9-0.4-47.8-0.8-65.8c-0.2-9-0.4-16.4-0.6-21.7
		c-0.1-2.6-0.3-4.7-0.3-6.1c-0.1-1.4-0.1-2.1-0.1-2.1s0,0.7,0.1,2.1c0,1.4,0.2,3.5,0.2,6.1c0.1,5.2,0.2,12.7,0.2,21.7
		c0,17.9-0.3,41.8-0.7,65.7c-0.6,36.4-1.4,72.7-1.7,88c-0.3-0.2-0.6-0.4-0.9-0.6c-2.4-1.6-5.9-4.1-10-7.2
		c-8.2-6.1-19-14.4-29.8-22.8c-10.8-8.4-21.4-16.9-29.4-23.3c-4-3.2-7.3-5.9-9.6-7.8c-1.1-1-2-1.7-2.7-2.2c-0.3-0.3-0.5-0.5-0.7-0.6
		c-0.1-0.2-0.2-0.2-0.2-0.2s0.1,0.1,0.2,0.2c0.1,0.1,0.4,0.4,0.7,0.6c0.6,0.5,1.5,1.3,2.6,2.3c2.2,2,5.5,4.8,9.3,8.1
		c7.7,6.7,18.1,15.6,28.5,24.4c10.4,8.8,20.9,17.5,28.9,24c4,3.2,7.3,5.8,9.7,7.6c-1.7,0.5-3.8,1-6.2,1.5
		c-6.7,1.5-15.8,3.2-24.9,4.8c-18.2,3.2-36.5,5.9-36.5,5.9s18.4-1.7,36.8-3.9c9.2-1.1,18.4-2.3,25.3-3.4c3.5-0.6,6.3-1.1,8.4-1.7
		c0.1,0,0.2-0.1,0.3-0.1c0,0.6,0.1,3,0.1,5.3l1.9-3.6l2.6,4.8c-0.2-2.8-0.5-5.8-0.5-6.4c0.1,0,0.1,0.1,0.2,0.1
		c0.6,0.2,1.2,0.5,1.9,0.8c1.4,0.6,2.9,1.1,4.6,1.6c1.7,0.6,3.5,1,5.4,1.5c1.9,0.5,3.9,0.9,6,1.4c2.1,0.5,4.3,0.8,6.5,1.2
		c2.2,0.4,4.5,0.7,6.7,1.1c4.5,0.7,9,1.2,13.3,1.7C877.5,417.6,881.5,418,884.8,418.2z"/>
</g>
<g id="XMLID_18_">
	<path id="XMLID_4_" fill="#95AA3B" d="M318.8,429.1c0,0,27.6-10.4,33.8-42.6c6.2-32.3,4.7-80.5-21.8-106.4
		c-26.6-25.9-19.8-21.1-36.5-38.6c-16.7-17.4-28.7-17.6-56-41c-27.3-23.4-54.7-47.6-54.7-47.6s20.3,36,7,61.2s-14.4,42.7-4.9,71.2
		s10.1,78.5,63.7,118.6S318.8,429.1,318.8,429.1z"/>
	<path id="XMLID_3_" fill="#7A8D39" d="M238.7,246.3c0,0,7,13.7,16.8,34.6c2.4,5.2,5.1,10.9,7.9,16.9c2.8,6,5.7,12.3,8.7,18.9
		c3,6.6,6,13.3,9.2,20.2c3.1,6.9,6.2,13.9,9.4,20.9c6.3,14,12.5,28,18.4,41.2c1.5,3.3,2.9,6.5,4.3,9.6c1.4,3.2,2.9,6.2,4.2,9.2
		c1.4,2.9,2.6,6.1,3.8,9.1c1.1,3,2.2,5.9,3.1,8.6c3.7,11.2,5.6,20.8,6.7,27.6c0.5,3.4,0.8,6.1,1,7.9c0.2,1.9,0.2,2.9,0.2,2.9l-7,0.5
		c0,0-0.1-0.9-0.3-2.6c-0.2-1.7-0.7-4.3-1.3-7.5c-0.6-3.2-1.5-7.1-2.6-11.6c-1.1-4.4-2.7-9.4-4.5-14.7c-0.9-2.7-1.9-5.4-3-8.2
		c-1.2-2.8-2.3-5.6-3.7-8.6c-1.4-3-2.8-6.1-4.2-9.2c-1.4-3.2-2.9-6.4-4.4-9.7c-2.9-6.6-5.8-13.4-8.9-20.4c-3-6.9-6-14-8.9-21.1
		c-3-7.1-6-14.2-8.8-21.2c-2.8-7-5.7-13.9-8.4-20.6c-2.6-6.7-5.2-13.2-7.6-19.3c-2.4-6.2-4.6-12-6.7-17.4
		C243.7,260.8,238.7,246.3,238.7,246.3z"/>
	<path id="XMLID_8_" fill="#7A8D39" d="M295.3,385.8c0,0-3.2-1.4-8.1-3.6c-4.8-2.2-11.2-5.3-17.5-8.5c-6.3-3.3-12.4-6.7-17-9.4
		c-4.5-2.7-7.5-4.6-7.5-4.6s3.1,1.6,7.9,3.8c4.8,2.2,11.2,5.1,17.7,7.7c6.5,2.6,13.1,5.1,18,6.8c4.9,1.7,8.3,2.8,8.3,2.8
		L295.3,385.8z"/>
	<polygon id="XMLID_7_" fill="#7A8D39" points="287.7,363.7 310.1,343.5 291.6,367.3 	"/>
	<path id="XMLID_9_" fill="#7A8D39" d="M270.8,324.1c0,0,0.4-0.3,1.1-0.9c0.7-0.6,1.6-1.3,2.6-2.3c2.2-2,4.9-4.8,7.4-7.9
		c2.5-3.1,4.8-6.4,6.3-8.9c1.5-2.6,2.5-4.4,2.5-4.4s-0.6,1.9-1.7,4.7c-1.1,2.8-2.8,6.5-4.8,10.1c-2,3.5-4.4,6.9-6.3,9.4
		c-0.9,1.2-1.8,2.3-2.4,2.9c-0.6,0.7-0.9,1-0.9,1L270.8,324.1z"/>
	<polygon id="XMLID_10_" fill="#7A8D39" points="266.7,313.6 223.1,297 268.3,308.6 	"/>
</g>
<g id="XMLID_2_">
	<path id="XMLID_5_" fill="#609640" d="M1107.9,145c0,0,0,26.9-10.5,45.2c-10.5,18.3-31.8,36.6-36.2,113.2
		c-4.5,76.6,7.5,115.8,29.1,135.6c21.7,19.8,38.1,22.8,40.7,18.3c2.6-4.5,13.1-13.8,29.5-33.6c16.4-19.8,47.1-100.9,17.2-151.3
		c-29.9-50.4-25.4-66.5-42.6-82.2C1118,174.5,1107.9,145,1107.9,145z"/>
	<g id="XMLID_13_">
		<path id="XMLID_17_" fill="#3C6C34" d="M1136.1,476.3l-11.2-15.9c-0.3-0.7-7.8-17.8-2.6-69.4c5.1-50.5-1.8-142.5-1.8-143.5l0,0
			c0.1,0.9,12.2,79.7,7.8,144.1c-3.2,46.5,1.2,63.9,2,66.1l10.7,15.1L1136.1,476.3z"/>
	</g>
	<g id="XMLID_15_">
		<path id="XMLID_40_" fill="#3C6C34" d="M1123,399.7c0,0,0.7-0.5,1.9-1.5c0.6-0.5,1.3-1.1,2.1-1.7c0.8-0.7,1.7-1.4,2.6-2.3
			c1-0.8,2-1.8,3-2.8c1.1-1,2.1-2.1,3.2-3.3c2.2-2.4,4.4-5,6.5-7.7c2.1-2.7,4.1-5.6,5.8-8.3c0.8-1.4,1.7-2.7,2.4-4
			c0.7-1.3,1.4-2.5,2-3.7c0.6-1.1,1.1-2.2,1.6-3.2c0.5-1,0.9-1.8,1.2-2.5c0.6-1.4,1-2.2,1-2.2s-0.3,0.8-0.7,2.3
			c-0.2,0.7-0.5,1.6-0.9,2.6c-0.3,1-0.8,2.1-1.3,3.4c-0.5,1.2-1,2.5-1.6,3.9c-0.6,1.4-1.3,2.8-2,4.3c-1.5,3-3.2,6-5,9.1
			c-1.9,3-3.9,5.9-5.8,8.6c-1,1.3-2,2.6-3,3.8c-1,1.2-1.9,2.3-2.8,3.3c-0.9,1-1.7,1.9-2.5,2.7c-0.8,0.8-1.4,1.5-2,2
			c-1.1,1.1-1.7,1.7-1.7,1.7L1123,399.7z"/>
	</g>
	<g id="XMLID_6_">
		<path id="XMLID_37_" fill="#3C6C34" d="M1126.2,372.5c0,0-0.8-0.2-2.1-0.5c-0.7-0.1-1.5-0.4-2.6-0.7c-1-0.3-2.1-0.6-3.3-1.1
			c-1.2-0.4-2.4-0.9-3.8-1.5c-1.3-0.5-2.7-1.3-4-2c-1.3-0.8-2.8-1.5-4.1-2.5c-1.4-0.9-2.7-1.9-4-2.8c-1.3-1.1-2.6-2.1-3.7-3.2
			c-1.2-1.1-2.3-2.2-3.3-3.3c-1-1.2-2-2.2-2.8-3.4c-0.9-1.1-1.7-2.1-2.3-3.2c-0.7-1-1.3-1.9-1.8-2.8c-0.5-0.8-0.9-1.6-1.2-2.2
			c-0.6-1.2-1-2-1-2s0.4,0.7,1.2,1.8c0.4,0.6,0.9,1.3,1.5,2c0.6,0.8,1.3,1.6,2.1,2.5c0.8,0.9,1.7,1.8,2.6,2.8c0.9,1,2,1.9,3.1,2.9
			c1.2,0.9,2.3,1.9,3.6,2.8c1.2,0.9,2.6,1.8,3.9,2.6c1.4,0.8,2.7,1.6,4.1,2.2c1.4,0.7,2.8,1.3,4.1,1.8c1.4,0.5,2.7,1,3.9,1.4
			c1.3,0.4,2.5,0.7,3.6,1c1.1,0.3,2.1,0.5,3,0.6c0.9,0.2,1.7,0.3,2.4,0.4c1.4,0.2,2.2,0.3,2.2,0.3L1126.2,372.5z"/>
	</g>
	<g id="XMLID_11_">
		<path id="XMLID_34_" fill="#3C6C34" d="M1125.8,325.2c0,0,0.6-0.4,1.7-1.1c0.6-0.3,1.2-0.7,1.9-1.2c0.7-0.5,1.5-1,2.3-1.7
			c0.9-0.6,1.7-1.4,2.7-2.2c0.9-0.8,1.9-1.7,2.8-2.6c0.9-1,1.9-1.9,2.8-3c1-1,1.8-2.2,2.7-3.3c0.8-1.2,1.7-2.3,2.5-3.5
			c0.8-1.2,1.5-2.4,2.2-3.6c0.6-1.2,1.3-2.4,1.8-3.5c0.5-1.1,1-2.2,1.4-3.3c0.4-1,0.8-2,1-2.8c0.3-0.8,0.5-1.6,0.7-2.2
			c0.3-1.2,0.5-2,0.5-2s-0.1,0.7-0.3,2c-0.1,0.6-0.2,1.4-0.4,2.3c-0.2,0.9-0.4,1.9-0.7,3c-0.3,1.1-0.6,2.3-1,3.5
			c-0.4,1.2-0.9,2.5-1.4,3.8c-0.6,1.3-1.1,2.7-1.8,4c-0.6,1.4-1.4,2.7-2.1,4c-0.8,1.3-1.6,2.6-2.4,3.8c-0.8,1.3-1.7,2.4-2.6,3.6
			c-0.9,1.1-1.8,2.2-2.7,3.2c-0.9,1-1.7,1.9-2.6,2.7c-0.8,0.8-1.6,1.5-2.3,2.2c-0.7,0.7-1.4,1.2-1.9,1.6c-1,0.8-1.6,1.3-1.6,1.3
			L1125.8,325.2z"/>
	</g>
	<g id="XMLID_12_">
		<path id="XMLID_28_" fill="#3C6C34" d="M1125.1,297.5c0,0-0.5-0.1-1.3-0.4c-0.4-0.1-1-0.3-1.6-0.5c-0.7-0.2-1.4-0.5-2.1-0.8
			c-0.7-0.3-1.5-0.7-2.3-1.1c-0.8-0.4-1.7-0.9-2.5-1.4c-1.7-1-3.4-2.2-5-3.5c-1.6-1.3-3.1-2.8-4.3-4.2c-0.6-0.7-1.2-1.4-1.7-2.1
			c-0.5-0.7-1-1.4-1.4-2c-0.8-1.3-1.4-2.4-1.8-3.1c-0.4-0.8-0.6-1.2-0.6-1.2s0.3,0.4,0.8,1.1c0.5,0.7,1.3,1.6,2.4,2.7
			c0.5,0.5,1.1,1.1,1.7,1.7c0.6,0.6,1.3,1.1,2,1.7c1.4,1.1,3.1,2.2,4.7,3.1c1.7,0.9,3.4,1.7,5.1,2.3c0.8,0.3,1.6,0.6,2.4,0.8
			c0.8,0.2,1.5,0.4,2.2,0.5c0.7,0.2,1.3,0.3,1.8,0.3c0.5,0.1,1,0.1,1.4,0.2c0.9,0.1,1.4,0.1,1.4,0.1L1125.1,297.5z"/>
	</g>
</g>
<g id="XMLID_63_">
	<path id="XMLID_53_" fill="#609640" d="M149.6,554.7c0,0,7.6,10.4,11.6,39.6c4,29.1,30.7,97.2,82,140.8
		c51.3,43.7,69.3,48.3,86.3,60c17,11.7,27.8,12.9,27.8,12.9s-13.7-41.1-32.6-81.7c-18.9-40.6-17.7-72.7-51.5-101.5
		c-33.8-28.8-51.5-41.4-75.3-49.3C174,567.7,149.6,554.7,149.6,554.7z"/>
	<path id="XMLID_57_" fill="#95AA3B" d="M173.7,581.9c0,0,0.8,1,2.4,2.8c1.5,1.9,3.8,4.6,6.6,8.1c2.8,3.5,6.3,7.7,10.3,12.6
		c3.9,4.9,8.4,10.4,13.2,16.4c4.8,6,10.1,12.5,15.6,19.4c5.5,6.9,11.3,14.2,17.3,21.7c6,7.5,12.2,15.3,18.5,23.2
		c6.3,7.9,12.8,15.9,19.2,23.9c6.5,8,12.9,15.9,19.4,23.7c6.4,7.8,12.8,15.4,18.9,22.8c6.2,7.4,12.2,14.5,17.9,21.2
		c5.7,6.7,11.3,12.9,16.4,18.7c10.2,11.5,19.1,20.7,25.6,26.8c1.6,1.6,3.1,2.8,4.4,4c1.3,1.2,2.4,2.1,3.3,2.8
		c1.9,1.4,2.8,2.2,2.8,2.2l-2,3c0,0-1.1-0.8-3.1-2.2c-1-0.7-2.2-1.7-3.5-2.8c-1.3-1.1-3-2.4-4.6-4c-6.8-6.1-15.8-15.2-26.3-26.6
		c-10.5-11.4-22.3-25-34.7-39.7c-6.2-7.4-12.6-15-19-22.8c-6.4-7.8-12.9-15.8-19.3-23.9c-12.8-16.1-25.6-32.1-37.4-47.4
		c-5.9-7.6-11.6-15-16.9-22.1c-5.3-7-10.3-13.7-14.9-20c-4.6-6.2-8.7-11.9-12.4-17c-3.6-5.1-6.8-9.5-9.4-13.2
		c-2.6-3.7-4.6-6.6-6-8.5C174.4,582.9,173.7,581.9,173.7,581.9z"/>
	<path id="XMLID_56_" fill="#95AA3B" d="M280.2,719.3c0,0,0.8-2.6,1.8-6.5c1-3.9,2.2-9.1,3.2-14.4c0.9-5.3,1.7-10.6,2.1-14.7
		c0.4-4,0.6-6.7,0.6-6.7s0,2.7-0.1,6.8c-0.1,4.1-0.4,9.5-1,14.9c-0.6,5.4-1.4,10.8-2.1,14.8c-0.7,4-1.3,6.7-1.3,6.7L280.2,719.3z"/>
	<path id="XMLID_58_" fill="#95AA3B" d="M270.2,706c0,0-0.6,0-1.7,0.1c-1,0.1-2.7,0.1-4.5,0.1c-1.9,0-4-0.1-6.3-0.3
		c-2.3-0.2-4.7-0.6-7.1-1c-2.4-0.5-4.8-1-7-1.7c-2.2-0.7-4.2-1.3-5.9-2c-1.7-0.7-3.1-1.3-4.1-1.7c-1-0.4-1.5-0.7-1.5-0.7
		s0.6,0.2,1.6,0.6c1,0.4,2.4,0.9,4.2,1.4c1.7,0.5,3.8,1,6,1.5c2.2,0.4,4.6,0.8,7,1.1c2.4,0.2,4.8,0.4,7,0.4c2.2,0,4.3-0.1,6.1-0.2
		c1.8-0.1,3.2-0.3,4.3-0.5c1-0.2,1.6-0.2,1.6-0.2L270.2,706z"/>
	<path id="XMLID_59_" fill="#95AA3B" d="M247.5,677.3c0,0,0.2-0.5,0.5-1.5c0.3-1,0.7-2.2,1.2-3.9c0.2-0.8,0.4-1.7,0.6-2.7
		c0.2-1,0.4-2,0.5-3c0.3-2.1,0.5-4.4,0.6-6.7c0-2.3-0.1-4.6-0.3-6.7c-0.1-1.1-0.2-2.1-0.4-3.1c-0.2-1-0.3-1.9-0.5-2.7
		c-0.3-1.7-0.7-3.1-1-4.1c-0.3-1-0.5-1.5-0.5-1.5s0.2,0.5,0.6,1.5c0.4,0.9,0.9,2.3,1.4,4c0.3,0.8,0.5,1.7,0.8,2.7
		c0.3,1,0.5,2,0.7,3.1c0.4,2.2,0.7,4.5,0.9,6.8c0.1,2.3,0.1,4.7,0,6.9c-0.1,1.1-0.1,2.2-0.3,3.2c-0.1,1-0.2,2-0.4,2.8
		c-0.3,1.7-0.6,3.3-0.9,4.2c-0.2,1-0.4,1.5-0.4,1.5L247.5,677.3z"/>
	<path id="XMLID_60_" fill="#95AA3B" d="M231.4,658.4c0,0-2.3-0.2-5.8-0.6c-3.5-0.4-8.1-1.2-12.6-2.3c-4.5-1.1-9-2.5-12.2-3.7
		c-3.3-1.2-5.4-2.1-5.4-2.1s2.2,0.7,5.6,1.6c3.3,0.9,7.9,1.9,12.4,2.6c4.6,0.7,9.1,1.1,12.6,1.2c3.4,0.1,5.7,0.1,5.7,0.1
		L231.4,658.4z"/>
	<path id="XMLID_61_" fill="#95AA3B" d="M216.3,638.4c0,0,0.1-0.6,0.2-1.5c0.1-1,0.3-2.3,0.4-3.9c0.1-0.8,0.1-1.7,0.1-2.6
		c0-0.9,0-1.9,0-3c-0.1-2.1-0.3-4.2-0.6-6.4c-0.4-2.2-0.8-4.3-1.4-6.3c-0.3-1-0.6-2-0.9-2.9c-0.3-0.9-0.6-1.8-0.9-2.5
		c-0.6-1.6-1.2-2.8-1.6-3.7c-0.4-0.9-0.7-1.4-0.7-1.4s0.3,0.5,0.8,1.3c0.5,0.8,1.2,2.1,1.9,3.6c0.4,0.7,0.8,1.6,1.2,2.5
		c0.4,0.9,0.8,1.8,1.2,2.8c0.7,2,1.4,4.1,2,6.3c0.5,2.2,1,4.4,1.3,6.6c0.1,1.1,0.3,2.1,0.3,3.1c0.1,1,0.1,1.9,0.1,2.8
		c0.1,1.7,0,3.2,0,4.2c0,1-0.1,1.5-0.1,1.5L216.3,638.4z"/>
	<path id="XMLID_62_" fill="#95AA3B" d="M297.6,740.1c0,0-0.6,0-1.8-0.1c-1.1-0.1-2.8-0.2-4.7-0.4c-3.9-0.4-9-1.2-14-2.5
		c-5-1.3-9.9-2.9-13.4-4.4c-1.8-0.7-3.2-1.4-4.3-1.8c-1-0.5-1.6-0.7-1.6-0.7s0.6,0.2,1.6,0.6c1,0.4,2.5,0.9,4.4,1.5
		c3.6,1.2,8.6,2.4,13.6,3.3c5,0.8,10,1.3,13.8,1.3c1.9,0.1,3.4,0,4.6,0c1.1,0,1.8,0,1.8,0L297.6,740.1z"/>
	<path id="XMLID_65_" fill="#95AA3B" d="M312.9,758.1c0,0,0.1-0.5,0.4-1.5c0.2-1,0.5-2.2,0.8-3.9c0.3-1.6,0.5-3.5,0.7-5.6
		c0.1-2.1,0.2-4.3,0.1-6.5c-0.1-2.2-0.3-4.4-0.5-6.5c-0.3-2.1-0.6-4-1-5.6c-0.4-1.6-0.8-3-1-3.9c-0.3-0.9-0.5-1.5-0.5-1.5
		s0.2,0.5,0.6,1.4c0.4,0.9,0.9,2.2,1.4,3.9c0.5,1.6,1.1,3.5,1.6,5.6c0.5,2.1,0.9,4.3,1.1,6.6c0.3,2.3,0.4,4.6,0.4,6.7
		c0,2.1,0,4.2-0.2,5.9c-0.1,1.7-0.3,3.2-0.5,4.2c-0.1,1-0.2,1.5-0.2,1.5L312.9,758.1z"/>
</g>
<g id="XMLID_77_">
	<g id="XMLID_69_">
		<path id="XMLID_80_" fill="#95AA3B" d="M584.1,811.5c-0.3-0.3-8.4-8.4-18.1-25.1c-9-15.5-24.1-59.2-26.7-66.6l-36.8-9.6l2-4.5
			l38.8,10.5l0.3,1c0.2,0.5,17.2,50.6,26.6,66.7c9.4,16.1,17.2,24,17.3,24.1L584.1,811.5z"/>
	</g>
	<g id="XMLID_76_">
		<path id="XMLID_66_" fill="#469042" d="M619.9,609.2c3.4,13,8.5,25.5,10.3,38.8c4.1,29.9-10.4,61.5-35.6,78
			c-8,5.2-17.3,9-26.8,8.5c-9-0.5-17.4-4.9-24.6-10.3c-16.5-12.2-29.2-31.1-29.4-51.7c-0.2-17.7,8.4-34.1,17-49.6
			c4.5-8.2,9.3-16.5,16.4-22.6c10.1-8.5,23.7-11.4,36.5-14.5c5.9-1.4,11.7-3.1,17.3-5.4c2.8-1.2,5.6-2.6,8.2-4.2
			c1.8-1.1,4.3-4.1,6.6-3.5c4.5,1.1,1.1,12.6,1.1,16C616.9,595.6,618.1,602.5,619.9,609.2z"/>
		<g id="XMLID_78_">
			<path id="XMLID_70_" fill="#95AA3B" d="M601.9,597.4c0,0-4.1,7.8-10.2,19.4c-3,5.8-6.6,12.6-10.4,19.9c-1.9,3.7-3.8,7.4-5.8,11.3
				c-1.9,3.9-3.9,7.7-5.8,11.7c-1.9,3.9-3.8,7.9-5.6,11.8c-0.9,1.9-1.8,3.9-2.7,5.8c-0.8,1.9-1.7,3.8-2.5,5.7
				c-1.7,3.7-3.2,7.4-4.6,10.9c-1.5,3.5-2.6,6.8-3.7,9.9c-0.5,1.5-1.2,3-1.6,4.4c-0.4,1.4-0.8,2.8-1.2,4c-0.4,1.3-0.8,2.4-1.1,3.5
				c-0.4,1.1-0.5,2.1-0.7,3c-0.9,3.7-1.3,5.8-1.3,5.8l-3.3-0.5c0,0,0.4-2.2,1.1-6c0.2-1,0.3-2,0.7-3.2c0.3-1.1,0.6-2.4,1-3.7
				c0.4-1.3,0.7-2.7,1.1-4.2c0.4-1.5,1-3,1.5-4.5c1.1-3.1,2.2-6.6,3.7-10.1c1.4-3.5,2.8-7.3,4.5-11c0.8-1.9,1.7-3.8,2.5-5.8
				c0.9-1.9,1.8-3.9,2.7-5.8c1.8-3.9,3.8-7.9,5.8-11.8c2-3.9,4.1-7.8,6.1-11.6c2-3.8,4.1-7.5,6.1-11.1c2.1-3.6,4.1-7,6-10.3
				c2-3.2,3.8-6.3,5.6-9.1c3.5-5.6,6.5-10.2,8.7-13.3c1.1-1.6,1.9-2.8,2.5-3.7C601.6,597.9,601.9,597.4,601.9,597.4z"/>
			<path id="XMLID_68_" fill="#95AA3B" d="M547.8,707.1c0,0,0.6,0,1.7-0.1c1.1-0.1,2.6-0.1,4.4-0.3c3.6-0.4,8.5-1.2,13.2-2.5
				c4.7-1.3,9.4-3.1,12.7-4.7c1.7-0.8,3.1-1.5,4-2c1-0.5,1.5-0.8,1.5-0.8s-0.5,0.3-1.4,0.9c-0.9,0.6-2.2,1.4-3.8,2.3
				c-3.2,1.9-7.7,4.1-12.4,5.8c-4.7,1.7-9.6,3-13.3,3.7c-1.8,0.4-3.5,0.6-4.5,0.7c-1.1,0.1-1.7,0.2-1.7,0.2L547.8,707.1z"/>
			<path id="XMLID_71_" fill="#95AA3B" d="M552,691.7c0,0-0.4-0.5-1.2-1.5c-0.4-0.4-0.9-1.1-1.4-1.8c-0.5-0.7-1.1-1.5-1.7-2.4
				c-0.6-0.9-1.2-1.9-1.8-3c-0.6-1.1-1.1-2.3-1.7-3.5c-0.5-1.2-1.1-2.5-1.5-3.8c-0.5-1.3-0.8-2.7-1.2-4c-0.3-1.4-0.7-2.8-0.9-4.1
				c-0.3-1.4-0.4-2.7-0.5-4c-0.1-1.3-0.2-2.6-0.2-3.8c0-1.2,0-2.3,0.1-3.4c0.1-1,0.2-2,0.3-2.8c0.1-0.8,0.2-1.6,0.3-2.2
				c0.2-1.2,0.4-1.9,0.4-1.9s-0.1,0.7-0.2,1.9c-0.1,0.6-0.1,1.3-0.2,2.2c-0.1,0.8-0.1,1.8-0.1,2.8c0,1,0,2.2,0.1,3.3
				c0.1,1.2,0.3,2.4,0.4,3.7c0.2,1.3,0.4,2.6,0.8,3.9c0.3,1.3,0.7,2.6,1.1,3.9c0.5,1.3,0.9,2.6,1.5,3.8c0.5,1.2,1.1,2.4,1.7,3.5
				c0.6,1.1,1.2,2.2,1.9,3.2c0.6,1,1.2,1.9,1.9,2.7c0.6,0.8,1.2,1.5,1.7,2.1c0.5,0.6,1,1.1,1.4,1.6c0.8,0.9,1.3,1.4,1.3,1.4
				L552,691.7z"/>
			<path id="XMLID_72_" fill="#95AA3B" d="M561.6,671.5c0,0,2.4-0.2,5.9-0.7c3.5-0.5,8.2-1.4,12.8-2.5c4.6-1.2,9.2-2.6,12.5-3.8
				c3.4-1.2,5.6-2.1,5.6-2.1s-2.1,1.1-5.4,2.6c-3.3,1.5-7.7,3.4-12.3,4.9c-4.6,1.6-9.2,2.9-12.8,3.7c-3.6,0.8-5.9,1.3-5.9,1.3
				L561.6,671.5z"/>
			<path id="XMLID_73_" fill="#95AA3B" d="M571.5,650.3c0,0-0.2-0.5-0.5-1.3c-0.3-0.8-0.8-2.1-1.3-3.6c-1-3-2-7-2.5-11.1
				c-0.6-4.1-0.7-8.2-0.5-11.3c0.1-1.5,0.2-2.8,0.2-3.7c0.1-0.9,0.1-1.4,0.1-1.4s0,0.5,0,1.4c0,0.9,0,2.2,0.1,3.7
				c0.2,3,0.7,7.1,1.7,11c0.9,3.9,2.3,7.7,3.5,10.4c0.6,1.4,1.1,2.4,1.5,3.3c0.4,0.8,0.6,1.2,0.6,1.2L571.5,650.3z"/>
			<polygon id="XMLID_74_" fill="#95AA3B" points="582.8,628.9 606.7,621.4 584,632 			"/>
		</g>
	</g>
	<g id="XMLID_64_">
		<path id="XMLID_67_" fill="#469042" d="M408.6,629.5c9.5-2.8,19.8-2.5,29.5-0.1c9.7,2.3,18.8,6.6,27.5,11.4
			c18.3,10.1,35.8,23.7,44.3,42.8c3.8,8.6,5.5,19,1,27.2c-3.3,6-9.4,10-15.9,12.1c-6.5,2.1-13.4,2.5-20.2,2.8
			c-15.3,0.6-30.8,0.7-45.7-2.5c-15-3.2-29.6-9.9-39.9-21.2c-6.6-7.2-11.3-15.9-15.9-24.5c-3-5.6-6-11.2-9-16.8
			c-0.8-1.5-4.5-6.4-4.1-8c0.5-1.8,4.4-1.7,5.9-2.2c9.7-2.7,18.1-8.7,26.8-13.7C397.9,633.8,403.1,631.1,408.6,629.5z"/>
		<path id="XMLID_81_" fill="#95AA3B" d="M510.1,712.1c0,0-1.6-1-4.5-2.6c-2.9-1.7-7.1-3.9-12.1-6.6c-5-2.7-11-5.7-17.4-8.8
			c-3.2-1.6-6.5-3.2-10-4.8c-3.4-1.6-6.9-3.1-10.4-4.7c-3.5-1.6-7-3.1-10.4-4.6c-3.5-1.4-6.9-2.8-10.2-4.2c-3.3-1.3-6.6-2.6-9.6-3.8
			c-3-1.2-6-2.2-8.7-3.2c-2.7-1-5.1-2-7.4-2.7c-2.2-0.8-4.1-1.4-5.7-2c-3.2-1.1-5-1.8-5-1.8s1.9,0.5,5.1,1.3
			c1.6,0.4,3.6,0.9,5.9,1.5c2.3,0.6,4.8,1.4,7.5,2.2c2.8,0.8,5.8,1.7,8.9,2.7c3.1,1,6.5,2.1,9.9,3.3c3.4,1.2,6.9,2.5,10.4,3.8
			c3.5,1.4,7.1,2.7,10.7,4.2c3.6,1.5,7.1,2.9,10.5,4.5c3.5,1.5,6.9,3.1,10.1,4.6c3.3,1.5,6.4,3.1,9.3,4.6c2.9,1.5,5.7,3,8.2,4.4
			c2.5,1.4,4.9,2.7,6.9,3.9c2,1.2,3.8,2.2,5.2,3.1c1.4,0.9,2.7,0.5,3.5,1c0.8,0.5,1.4,0.3,1.4,0.3
			C512.4,709.8,511.3,711.3,510.1,712.1z"/>
		<path id="XMLID_75_" fill="#95AA3B" d="M486.8,698.8c0,0-0.6,0.3-1.5,0.8c-1,0.5-2.5,1.2-4.3,2c-0.9,0.4-1.9,0.8-2.9,1.1
			c-1,0.4-2.1,0.7-3.3,1.1c-2.3,0.7-4.8,1.3-7.3,1.9c-2.5,0.5-5,0.8-7.4,1.1c-1.2,0.1-2.3,0.2-3.4,0.2c-1.1,0-2.1,0.1-3.1,0.1
			c-1.9,0-3.5-0.1-4.6-0.2c-1.1-0.1-1.7-0.1-1.7-0.1s0.6,0,1.7,0c1.1,0,2.7,0,4.6-0.2c0.9-0.1,2-0.2,3-0.3c1.1-0.1,2.2-0.3,3.4-0.5
			c2.3-0.4,4.8-1,7.2-1.6c2.4-0.7,4.7-1.5,6.9-2.4c1.1-0.5,2.1-0.9,3.1-1.3c1-0.5,1.9-0.9,2.7-1.3c1.7-0.9,2.9-1.6,3.9-2.2
			c0.9-0.6,1.5-0.9,1.5-0.9L486.8,698.8z"/>
		<path id="XMLID_82_" fill="#95AA3B" d="M469.2,689.2c0,0,0-0.7,0.1-1.9c0-0.6,0-1.3,0-2.1c0-0.8,0-1.7-0.1-2.7
			c0-1-0.1-2.1-0.2-3.2c-0.1-1.1-0.3-2.3-0.5-3.6c-0.4-2.5-1-5.1-1.8-7.6c-0.8-2.5-1.7-5.1-2.7-7.4c-0.5-1.1-1-2.2-1.6-3.3
			c-0.5-1-1.1-2-1.6-2.8c-1-1.7-2-3.1-2.7-4.1c-0.7-1-1.1-1.5-1.1-1.5s0.4,0.5,1.2,1.4c0.8,0.9,1.8,2.2,3,3.9
			c0.6,0.8,1.2,1.8,1.8,2.7c0.6,1,1.2,2.1,1.9,3.2c1.2,2.3,2.4,4.7,3.4,7.3c1,2.6,1.8,5.2,2.4,7.7c0.3,1.3,0.6,2.5,0.8,3.6
			c0.2,1.2,0.4,2.3,0.5,3.3c0.3,2,0.4,3.9,0.4,5c0,1.2,0.1,1.9,0.1,1.9L469.2,689.2z"/>
		<path id="XMLID_83_" fill="#95AA3B" d="M443.7,679.1c0,0-0.4,0.4-1.1,1.1c-0.7,0.7-1.9,1.7-3.2,2.8c-0.7,0.6-1.4,1.1-2.3,1.7
			c-0.8,0.6-1.7,1.2-2.6,1.8c-1.9,1.2-3.9,2.3-6,3.3c-2.1,1-4.3,1.8-6.3,2.4c-1,0.3-2,0.6-3,0.8c-1,0.2-1.9,0.4-2.7,0.6
			c-1.7,0.3-3.1,0.5-4.1,0.6c-1,0.1-1.6,0.2-1.6,0.2s0.6-0.1,1.5-0.3c1-0.2,2.4-0.5,4-1c0.8-0.2,1.7-0.5,2.6-0.8
			c0.9-0.3,1.9-0.7,2.9-1.1c2-0.8,4-1.8,5.9-2.9c1.9-1.1,3.8-2.4,5.5-3.6c0.8-0.7,1.6-1.3,2.3-1.9c0.7-0.6,1.4-1.2,2-1.8
			c1.2-1.2,2.1-2.1,2.8-2.9c0.7-0.8,1-1.2,1-1.2L443.7,679.1z"/>
		<path id="XMLID_84_" fill="#95AA3B" d="M425.7,672.2c0,0-0.2-0.5-0.5-1.4c-0.3-0.9-0.8-2-1.5-3.4c-1.3-2.8-3.5-6.5-6-9.9
			c-2.5-3.5-5.2-6.8-7.2-9.3c-2-2.5-3.4-4.2-3.4-4.2s1.5,1.5,3.8,3.8c2.3,2.3,5.3,5.4,8.1,8.6c2.8,3.3,5.5,6.8,7.2,9.6
			c0.9,1.4,1.5,2.7,1.9,3.6c0.4,0.9,0.6,1.3,0.6,1.3L425.7,672.2z"/>
	</g>
</g>
<g id="XMLID_101_">
	<g id="XMLID_90_">
		<path id="XMLID_91_" fill="#95AA3B" d="M830.2,817.3c-1.7-53.4,5.1-144.1,5.2-145l7,0.5c-0.1,0.9-6.9,91.3-5.2,144.3L830.2,817.3z
			"/>
	</g>
	<g id="XMLID_79_">
		<path id="XMLID_86_" fill="#469042" d="M853.9,513.2c0,0-3.6,17.7-18.8,34.3c-15.3,16.5-30.7,33.5-30.3,42l-6.7-3.5
			c0,0-11.5,39.7,2.2,67.5c13.6,27.8,36,46.1,36,46.1s38.8-19.8,52.8-49.8c14-30-0.3-72.8-0.3-72.8l-6.1,4.3c0,0,0.5-9.2-11.9-23.1
			C858.4,544.1,853.9,513.2,853.9,513.2z"/>
		<path id="XMLID_87_" fill="#469042" d="M833.6,727.1c0,0-8.2-46.6-45.2-59.8c-36.9-13.2-79.2,0.9-90.7-0.4
			c-11.5-1.3-14.8-3.7-14.8-3.7s15.2,15.6,23.3,31.9c8.1,16.3,20.3,36.8,35.9,38.8l-6.7,3.1c0,0,20.9,15.8,52.6,6.4
			C819.9,733.8,833.6,727.1,833.6,727.1z"/>
		<path id="XMLID_88_" fill="#469042" d="M836.6,726.9c0,0,23.4-51.2,62.3-56.4c38.9-5.2,71.7,24.8,83.2,25.9
			c11.5,1.1,15.2-0.5,15.2-0.5s-18.1,12-29.5,26.3c-11.3,14.2-27.6,31.7-43.3,30.4l5.9,4.4c0,0-23.8,11.1-52.8-4.8
			C848.7,736.3,836.6,726.9,836.6,726.9z"/>
	</g>
	<path id="XMLID_99_" fill="#95AA3B" d="M833.6,699.5c0,0,0.1-2,0.4-5.5c0.2-3.5,0.7-8.6,1.2-14.6c0.6-6,1.3-13.1,2.2-20.6
		c0.8-7.5,1.8-15.5,2.9-23.5c1.1-8,2.1-16,3.1-23.5c1.1-7.5,2.1-14.5,3.1-20.4c1.9-12,3.4-19.9,3.4-19.9s-0.5,8.1-1.5,20.1
		c-0.5,6-1.1,13.1-1.7,20.6c-0.7,7.5-1.4,15.6-2.1,23.6c-0.6,8-1.3,16.1-1.9,23.6c-0.6,7.5-1.1,14.5-1.5,20.6
		c-0.2,3-0.4,5.7-0.5,8.2c-0.2,2.4-0.3,4.6-0.3,6.3c-0.2,3.5-0.2,5.5-0.2,5.5L833.6,699.5z"/>
	<path id="XMLID_98_" fill="#95AA3B" d="M837.4,669.1c0,0,2.1-1.6,5.1-4.1c3-2.5,6.9-6,10.5-9.7c3.7-3.7,7.1-7.6,9.6-10.7
		c2.5-3,4.1-5.1,4.1-5.1s-1.4,2.2-3.6,5.5c-2.2,3.2-5.4,7.5-8.8,11.5c-3.4,4-7,7.9-9.8,10.7c-2.8,2.8-4.8,4.6-4.8,4.6L837.4,669.1z"
		/>
	<path id="XMLID_89_" fill="#95AA3B" d="M839.4,648.1c0,0-1.7-1.4-4.3-3.6c-2.5-2.2-5.8-5.2-8.8-8.5c-3.1-3.2-5.9-6.6-7.9-9.3
		c-2-2.6-3.3-4.4-3.3-4.4s1.4,1.7,3.7,4.1c2.3,2.4,5.4,5.5,8.7,8.4c3.3,2.9,6.8,5.5,9.5,7.4c2.7,1.9,4.5,3.1,4.5,3.1L839.4,648.1z"
		/>
	<path id="XMLID_100_" fill="#95AA3B" d="M841.6,626.9c0,0,0.4-0.2,1.2-0.6c0.8-0.4,1.7-0.9,3-1.6c2.4-1.4,5.6-3.4,8.5-5.7
		c2.9-2.3,5.7-5,7.6-7.1c1.9-2.1,3.1-3.6,3.1-3.6s-1,1.6-2.6,4c-1.7,2.3-4.1,5.3-6.8,8.1c-2.7,2.7-5.7,5.2-8.1,6.9
		c-1.2,0.9-2.2,1.6-2.9,2c-0.7,0.4-1.1,0.7-1.1,0.7L841.6,626.9z"/>
	<path id="XMLID_97_" fill="#95AA3B" d="M844.1,605c0,0-1.2-0.9-3.1-2.3c-1.8-1.4-4.2-3.4-6.3-5.5c-2.2-2.1-4.2-4.4-5.7-6.1
		c-1.5-1.7-2.4-2.9-2.4-2.9s1.1,1.1,2.8,2.6c1.7,1.5,4,3.4,6.4,5.1c2.4,1.7,4.9,3.3,6.9,4.4c1.9,1.1,3.3,1.8,3.3,1.8L844.1,605z"/>
	<g id="XMLID_122_">
		<path id="XMLID_104_" fill="#95AA3B" d="M946.4,705.9c0,0-6.9,1.3-17.3,2.9c-5.2,0.8-11.2,1.7-17.7,2.6c-6.5,1-13.4,2.1-20.2,3.4
			c-3.4,0.6-6.8,1.4-10.2,2c-3.4,0.6-6.6,1.4-9.8,2.1c-3.2,0.7-6.2,1.5-9.1,2.3c-2.9,0.7-5.6,1.6-8.1,2.3c-2.5,0.7-4.7,1.5-6.7,2.2
			c-1,0.3-1.9,0.6-2.8,0.9c-0.8,0.3-1.6,0.6-2.3,0.9c-2.8,1.1-4.4,1.7-4.4,1.7l-2.1-4.8c0,0,1.7-0.7,4.6-1.9c0.7-0.3,1.5-0.6,2.4-1
			c0.9-0.3,1.9-0.6,2.9-1c2.1-0.6,4.4-1.5,6.9-2.2c2.6-0.7,5.3-1.5,8.3-2.2c3-0.7,6.1-1.5,9.3-2.1c3.2-0.6,6.6-1.4,10-2
			c3.4-0.6,6.9-1.2,10.4-1.7c7-1.1,13.9-1.9,20.5-2.7c6.5-0.7,12.7-1.3,17.9-1.6C939.3,705.5,946.4,705.9,946.4,705.9z"/>
		<path id="XMLID_93_" fill="#95AA3B" d="M862.3,720.2c0,0,0,0.1,0.1,0.4c0.1,0.3,0.1,0.4,0.3,0.8c0.3,0.7,0.9,1.6,1.9,2.6
			c1,1,2.4,2.1,3.9,3.2c1.6,1.1,3.2,2.3,5,3.4c6.8,4.6,14.3,8.2,14.3,8.2s-7.8-2.8-15.2-6.7c-1.9-1-3.7-2-5.4-2.9
			c-1.7-1-3.3-1.9-4.6-3c-1.3-1.1-2.3-2.2-2.8-3.2c-0.3-0.4-0.5-1-0.6-1.1c-0.1-0.2-0.1-0.3-0.1-0.3L862.3,720.2z"/>
		<path id="XMLID_108_" fill="#95AA3B" d="M874,716c0,0,0.1-0.4,0.1-1.1c0.1-0.7,0.3-1.8,0.5-3c0.5-2.4,1.4-5.6,2.8-8.6
			c1.3-3,3-5.8,4.4-7.7c0.7-1,1.3-1.8,1.8-2.3c0.5-0.5,0.7-0.8,0.7-0.8s-0.9,1.3-2,3.4c-1.1,2.1-2.4,5-3.2,8.1
			c-0.9,3-1.3,6.1-1.5,8.4c-0.1,1.2-0.1,2.1-0.1,2.8c0,0.7,0,1.1,0,1.1L874,716z"/>
		<path id="XMLID_109_" fill="#95AA3B" d="M891.9,711c0,0,0.3,0.3,0.9,0.9c0.6,0.6,1.4,1.3,2.4,2.2c2,1.8,4.9,4,7.9,6.1
			c3,2,6.2,3.8,8.7,5c2.5,1.2,4.2,1.9,4.2,1.9s-1.8-0.5-4.4-1.4c-2.6-0.9-6.1-2.3-9.4-4c-3.3-1.7-6.5-3.6-8.8-5.2
			c-1.2-0.8-2.1-1.5-2.8-2c-0.6-0.5-1-0.8-1-0.8L891.9,711z"/>
		<path id="XMLID_110_" fill="#95AA3B" d="M907,710.5c0,0,0.1-0.4,0.1-1c0.1-0.6,0.3-1.7,0.5-2.8c0.5-2.3,1.6-5.2,3.1-7.8
			c1.5-2.6,3.4-5,5-6.6c0.8-0.8,1.5-1.4,2-1.8c0.5-0.4,0.8-0.6,0.8-0.6s-0.2,0.3-0.7,0.8c-0.4,0.5-1,1.2-1.7,2.1
			c-1.3,1.7-2.8,4.3-3.8,7c-1,2.7-1.6,5.5-1.7,7.6c-0.1,1.1-0.1,1.8-0.1,2.5c0,0.6,0,1,0,1L907,710.5z"/>
		<path id="XMLID_111_" fill="#95AA3B" d="M925.3,706.7c0,0,0.3,0.3,0.7,0.7c0.5,0.4,1.1,1,1.9,1.7c1.6,1.4,3.8,3.1,6.2,4.6
			c2.4,1.5,4.9,2.8,6.9,3.7c2,0.9,3.3,1.3,3.3,1.3s-1.4-0.3-3.5-0.8c-2.1-0.6-4.9-1.5-7.5-2.7c-2.7-1.2-5.3-2.6-7.1-3.8
			c-0.9-0.6-1.7-1.2-2.2-1.5c-0.5-0.4-0.8-0.6-0.8-0.6L925.3,706.7z"/>
	</g>
	<g id="XMLID_126_">
		<path id="XMLID_152_" fill="#95AA3B" d="M730.4,684c0,0,7,1,17.2,3.7c5.1,1.3,11,3.1,17.3,5.1c6.3,2,13,4.2,19.6,6.6
			c3.3,1.2,6.6,2.4,9.8,3.7c3.2,1.2,6.4,2.6,9.4,3.9c3.1,1.3,5.9,2.7,8.7,3.9c2.8,1.2,5.3,2.6,7.7,3.8c2.4,1.2,4.5,2.5,6.4,3.5
			c0.9,0.5,1.8,1,2.6,1.5c0.8,0.5,1.5,1,2.2,1.4c2.6,1.7,4.1,2.7,4.1,2.7l-3,4.3c0,0-1.4-0.9-3.9-2.6c-0.6-0.4-1.3-0.9-2.1-1.4
			c-0.8-0.5-1.6-0.9-2.5-1.5c-1.8-1-3.8-2.3-6.2-3.4c-2.3-1.2-4.8-2.5-7.5-3.8c-2.7-1.3-5.5-2.7-8.5-4c-3-1.3-6-2.7-9.2-4
			c-3.2-1.3-6.4-2.7-9.6-4c-6.5-2.6-13-5.1-19.2-7.3c-6.2-2.2-11.9-4.3-16.9-6C736.9,686.7,730.4,684,730.4,684z"/>
		<path id="XMLID_149_" fill="#95AA3B" d="M813.1,716.3c0,0-0.1,0.1-0.2,0.3c-0.1,0.1-0.5,0.6-0.8,1c-0.7,0.8-1.9,1.8-3.4,2.6
			c-1.5,0.8-3.3,1.4-5.1,2.1c-1.9,0.6-3.9,1.3-5.9,1.8c-8,2.4-16.2,3.6-16.2,3.6s8-2.1,15.7-5.2c1.9-0.8,3.8-1.6,5.5-2.4
			c1.8-0.8,3.3-1.6,4.5-2.4c1.2-0.8,1.9-1.6,2.4-2.2c0.2-0.3,0.3-0.4,0.4-0.7c0.1-0.2,0.2-0.3,0.2-0.3L813.1,716.3z"/>
		<path id="XMLID_146_" fill="#95AA3B" d="M795.9,707.7c0,0,0.1-0.4,0.2-1.1c0.1-0.7,0.3-1.6,0.4-2.7c0.3-2.3,0.4-5.4,0.2-8.6
			c-0.3-3.1-0.9-6.2-1.6-8.5c-0.7-2.3-1.3-3.8-1.3-3.8s0.2,0.4,0.5,1c0.3,0.6,0.8,1.5,1.3,2.6c1,2.2,2.1,5.3,2.8,8.5
			c0.7,3.2,1,6.5,1,9c0,1.2,0,2.3-0.1,3c0,0.7-0.1,1.1-0.1,1.1L795.9,707.7z"/>
		<path id="XMLID_143_" fill="#95AA3B" d="M784.5,702.7c0,0-0.4,0.2-1.1,0.5c-0.7,0.3-1.8,0.9-3.1,1.4c-2.6,1.1-6.1,2.4-9.7,3.4
			c-3.6,1-7.2,1.7-10,2.1c-2.7,0.4-4.6,0.5-4.6,0.5s1.8-0.3,4.5-1c2.7-0.7,6.2-1.8,9.5-3.2c3.4-1.4,6.6-3,8.9-4.4
			c1.2-0.7,2.1-1.2,2.8-1.7c0.7-0.4,1.1-0.7,1.1-0.7L784.5,702.7z"/>
		<path id="XMLID_140_" fill="#95AA3B" d="M764.7,695.8c0,0,0.1-0.4,0.2-1c0.1-0.7,0.3-1.4,0.4-2.5c0.2-2.1,0.2-4.9-0.2-7.8
			c-0.5-2.8-1.4-5.6-2.4-7.6c-0.5-1-0.9-1.8-1.2-2.4c-0.3-0.6-0.5-0.9-0.5-0.9s0.2,0.3,0.6,0.8c0.4,0.5,1,1.2,1.6,2.2
			c1.3,1.8,2.6,4.5,3.6,7.4c0.9,2.9,1.4,5.9,1.5,8.3c0.1,1.1,0,2.2,0,2.8c0,0.6-0.1,1-0.1,1L764.7,695.8z"/>
		<path id="XMLID_127_" fill="#95AA3B" d="M752.6,692c0,0-0.3,0.1-0.9,0.4c-0.6,0.2-1.5,0.6-2.5,1c-2.1,0.8-4.9,1.7-7.7,2.4
			c-2.9,0.6-5.7,1-7.9,1.1c-2.2,0.1-3.6,0.1-3.6,0.1s1.4-0.2,3.5-0.7c2.1-0.5,4.8-1.3,7.5-2.3c2.6-1,5.2-2.3,7-3.3
			c0.9-0.5,1.6-1,2.2-1.3c0.5-0.3,0.8-0.5,0.8-0.5L752.6,692z"/>
	</g>
</g>
<g id="XMLID_52_">
	<path id="XMLID_26_" fill="#3C6C34" d="M442.6,176.2c0,0,5.5,7.9-5,23.8c-10.4,15.9-25.8,34.3-19.4,85.9
		c6.5,51.6,16.4,62.1,16.4,62.1h-8.4c0,0,26.8,36.7,48.2,49.7h-5.7c0,0,24.3,22.8,54.9,27.8c30.5,5,44.2,6,44.2,6
		s36.7-47.9,40.5-83.4s2-42.5,2-42.5L605,314c0,0,2.7-29-12.9-54.6c-15.6-25.6-23.8-30.8-23.8-30.8l-1,11.2c0,0-11.2-23.6-47.2-38.7
		C484.1,185.9,442.6,176.2,442.6,176.2z"/>
	<g id="XMLID_50_">
		<path id="XMLID_27_" fill="#95AA3B" d="M466.4,213.5c0,0,0.6,0.9,1.6,2.7c1.1,1.7,2.6,4.3,4.5,7.7c1.9,3.3,4.2,7.3,6.9,12
			c2.6,4.6,5.5,9.9,8.6,15.6c3.1,5.8,6.5,12,9.9,18.7c3.5,6.6,7.1,13.7,10.8,21c3.7,7.3,7.4,14.9,11.2,22.6
			c3.8,7.7,7.5,15.6,11.3,23.5c3.7,7.9,7.4,15.8,11,23.6c3.6,7.8,7,15.6,10.3,23c3.2,7.5,6.4,14.8,9.3,21.7
			c2.9,6.9,5.6,13.5,8.1,19.6c2.4,6.1,4.5,11.7,6.4,16.7c2,5,3.5,9.4,4.8,13c2.5,7.2,4,11.4,4,11.4l-4.6,1.7c0,0-1.6-4-4.4-11.1
			c-1.4-3.5-3-7.9-5.1-12.8c-2-4.9-4.3-10.4-6.8-16.5c-2.6-6-5.3-12.5-8.2-19.4c-3-6.8-6.2-14.1-9.5-21.5
			c-3.4-7.4-6.8-15.1-10.4-22.9c-3.6-7.8-7.2-15.7-10.9-23.6c-3.7-7.9-7.3-15.8-11-23.6c-3.7-7.8-7.3-15.4-10.8-22.8
			c-3.5-7.4-6.9-14.5-10.1-21.3c-3.2-6.8-6.2-13.2-9-19.1c-2.8-5.9-5.3-11.4-7.5-16.2c-2.2-4.8-4.1-9.1-5.7-12.5
			c-1.6-3.5-2.8-6.2-3.7-8.1C466.9,214.5,466.4,213.5,466.4,213.5z"/>
		<path id="XMLID_29_" fill="#95AA3B" d="M552.7,393.3c0,0,0.2-0.2,0.6-0.6c0.4-0.4,0.9-1,1.6-1.8c0.7-0.8,1.5-1.8,2.3-2.9
			c0.9-1.1,1.8-2.5,2.8-4c0.9-1.5,2-3.1,3-5c0.5-0.9,1-1.8,1.5-2.8c0.5-1,1-2,1.5-3c1-2,1.9-4.2,2.8-6.3c0.9-2.2,1.7-4.5,2.5-6.7
			c0.7-2.3,1.5-4.6,2.1-6.9c0.6-2.3,1.2-4.6,1.7-6.8c0.4-2.2,0.8-4.4,1.2-6.4c0.3-2,0.6-4,0.8-5.8c0.2-1.8,0.5-3.4,0.6-4.9
			c0.1-1.5,0.2-2.8,0.3-3.8c0.2-2.1,0.3-3.3,0.3-3.3s0,1.2-0.1,3.3c0,1.1-0.1,2.3-0.1,3.8c0,1.5-0.2,3.1-0.4,4.9
			c-0.2,1.8-0.3,3.8-0.6,5.8c-0.3,2.1-0.6,4.2-1,6.5c-0.4,2.2-0.9,4.5-1.4,6.9c-0.5,2.3-1.2,4.7-1.8,7c-0.7,2.3-1.5,4.6-2.3,6.9
			c-0.9,2.2-1.6,4.5-2.6,6.5c-0.5,1-0.9,2.1-1.4,3.1c-0.5,1-1,2-1.5,2.9c-0.9,1.9-2,3.6-2.9,5.2c-1,1.6-1.9,3-2.7,4.2
			c-0.8,1.2-1.6,2.3-2.3,3.2c-0.7,0.9-1.2,1.5-1.6,2c-0.4,0.4-0.6,0.7-0.6,0.7L552.7,393.3z"/>
		<path id="XMLID_20_" fill="#95AA3B" d="M536.9,354.5c0,0,0.4-1.2,1.1-3.2c0.4-1,0.8-2.2,1.2-3.7c0.5-1.4,1-3,1.5-4.8
			c0.5-1.8,1.1-3.7,1.6-5.7c0.6-2,1-4.2,1.6-6.4c0.5-2.3,1-4.6,1.4-7c0.5-2.4,0.8-4.8,1.2-7.2c0.3-2.4,0.6-4.9,0.8-7.3
			c0.3-2.4,0.4-4.8,0.5-7.1c0.1-2.3,0.2-4.5,0.2-6.6c0-2.1,0-4.1,0-6c0-1.8-0.1-3.5-0.2-5c-0.1-1.5-0.1-2.8-0.2-3.9
			c-0.2-2.2-0.2-3.4-0.2-3.4s0.1,1.2,0.4,3.4c0.1,1.1,0.2,2.4,0.4,3.9c0.1,1.5,0.3,3.2,0.4,5c0.1,1.8,0.2,3.9,0.2,6
			c0.1,2.1,0,4.4,0,6.7c-0.1,2.3-0.1,4.7-0.3,7.1c-0.1,2.4-0.3,4.9-0.5,7.4c-0.3,2.5-0.5,4.9-0.9,7.3c-0.3,2.4-0.7,4.8-1.1,7.1
			c-0.4,2.3-0.8,4.5-1.3,6.6c-0.5,2.1-0.9,4-1.4,5.8c-0.4,1.8-0.9,3.5-1.3,4.9c-0.4,1.5-0.8,2.7-1.1,3.8c-0.6,2.1-1,3.2-1,3.2
			L536.9,354.5z"/>
		<path id="XMLID_30_" fill="#95AA3B" d="M546.9,378.4c0,0-1.3,0-3.6,0.1c-1.1,0-2.5,0-4.2,0c-1.6,0-3.4,0-5.4-0.2
			c-2-0.1-4.1-0.2-6.4-0.4c-2.3-0.2-4.6-0.5-7.1-0.7c-2.4-0.3-5-0.7-7.5-1.1c-2.6-0.4-5.1-1-7.7-1.5c-2.6-0.6-5.1-1.2-7.6-1.9
			c-2.5-0.6-4.9-1.4-7.3-2.1c-2.3-0.8-4.6-1.5-6.7-2.3c-2.1-0.8-4.1-1.5-5.9-2.3c-1.8-0.7-3.5-1.4-4.9-2.1c-1.5-0.6-2.7-1.2-3.8-1.7
			c-2.1-1-3.2-1.6-3.2-1.6s1.2,0.5,3.3,1.5c1,0.5,2.3,1,3.8,1.6c1.5,0.6,3.1,1.3,5,1.9c1.8,0.7,3.9,1.4,6,2.1
			c2.1,0.7,4.4,1.4,6.8,2.1c2.4,0.6,4.8,1.3,7.3,1.8c2.5,0.6,5.1,1.1,7.6,1.6c2.6,0.4,5.1,0.9,7.7,1.2c2.5,0.4,5.1,0.6,7.5,0.9
			c2.4,0.2,4.8,0.4,7,0.5c2.2,0.1,4.3,0.2,6.3,0.2c2,0,3.7,0,5.3,0c1.6,0,3-0.1,4.1-0.1c2.3-0.1,3.6-0.2,3.6-0.2L546.9,378.4z"/>
		<path id="XMLID_31_" fill="#95AA3B" d="M521.7,327.2c0,0-1-0.1-2.7-0.2c-1.7-0.1-4.3-0.3-7.2-0.7c-1.5-0.2-3.1-0.4-4.8-0.7
			c-1.7-0.2-3.5-0.6-5.3-0.9c-3.7-0.7-7.6-1.6-11.4-2.6c-3.8-1-7.6-2.2-11.1-3.5c-1.7-0.6-3.4-1.2-5-1.9c-1.6-0.6-3.1-1.2-4.4-1.8
			c-2.7-1.2-5-2.2-6.5-3c-1.6-0.8-2.4-1.2-2.4-1.2s0.9,0.4,2.5,1.1c1.6,0.7,3.9,1.6,6.7,2.7c1.4,0.5,2.9,1.1,4.5,1.6
			c1.6,0.6,3.3,1.1,5.1,1.6c3.5,1.1,7.4,2,11.2,2.9c3.9,0.8,7.7,1.5,11.4,2c1.8,0.2,3.6,0.5,5.3,0.6c1.7,0.2,3.3,0.3,4.7,0.4
			c2.9,0.2,5.3,0.3,7.1,0.4c1.7,0,2.7,0.1,2.7,0.1L521.7,327.2z"/>
		<path id="XMLID_33_" fill="#95AA3B" d="M512.8,304.9c0,0,0.5-0.9,1.3-2.4c0.4-0.8,0.9-1.7,1.4-2.7c0.5-1.1,1.1-2.3,1.6-3.6
			c0.6-1.3,1.1-2.8,1.6-4.4c0.6-1.6,1-3.3,1.5-5c0.4-1.8,0.9-3.6,1.2-5.5c0.4-1.9,0.6-3.8,0.8-5.8c0.1-1.9,0.3-3.9,0.3-5.8
			c0.1-1.9,0-3.8-0.1-5.7c-0.1-1.8-0.2-3.6-0.5-5.3c-0.2-1.7-0.4-3.3-0.7-4.7c-0.2-1.5-0.5-2.8-0.8-3.9c-0.3-1.2-0.5-2.2-0.8-3
			c-0.5-1.7-0.8-2.6-0.8-2.6s0.3,0.9,0.9,2.6c0.3,0.8,0.6,1.8,0.9,3c0.4,1.2,0.7,2.5,1,3.9c0.4,1.4,0.7,3,0.9,4.7
			c0.3,1.7,0.5,3.5,0.7,5.3c0.1,1.9,0.3,3.8,0.3,5.7c0.1,2,0,3.9-0.1,5.9c-0.2,2-0.3,4-0.6,5.9c-0.2,2-0.6,3.9-0.9,5.7
			c-0.4,1.8-0.8,3.6-1.3,5.3c-0.5,1.7-0.9,3.2-1.5,4.6c-0.5,1.4-1,2.7-1.5,3.9c-0.5,1.2-0.9,2.1-1.3,2.9c-0.7,1.6-1.2,2.5-1.2,2.5
			L512.8,304.9z"/>
		<path id="XMLID_36_" fill="#95AA3B" d="M504.9,289.3c0,0-0.8-0.1-2.2-0.4c-1.4-0.2-3.5-0.6-5.9-1.1c-2.5-0.5-5.3-1.2-8.3-1.9
			c-3-0.8-6.2-1.8-9.4-2.8c-3.1-1.1-6.3-2.2-9.1-3.4c-2.9-1.2-5.5-2.3-7.8-3.4c-2.2-1.1-4.1-2-5.4-2.7c-1.3-0.7-2-1.1-2-1.1
			s0.8,0.3,2.1,0.9c1.3,0.6,3.2,1.4,5.5,2.4c2.3,0.9,5,1.9,7.9,3c2.9,1,6.1,2,9.2,2.8c3.2,0.9,6.4,1.6,9.4,2.2
			c3,0.6,5.8,1.1,8.3,1.4c2.4,0.4,4.4,0.6,5.9,0.7c1.4,0.1,2.3,0.2,2.3,0.2L504.9,289.3z"/>
	</g>
</g>
<g id="XMLID_115_">
	<path id="XMLID_102_" fill="#469042" d="M1183,530.8c0,0,1.4,28.1-37.7,44.3c-39.1,16.2-59.6,16.7-86.4,62.5
		c-26.7,45.8-26.5,60.6-14.7,81.3c11.8,20.8,6.8,37.9,25.8,49.4c19,11.5,56.5,5.4,56.5,5.4s11.8,26.5,42.9,25
		c31.1-1.4,46.2-18.6,63.7-29.7c17.5-11.1,24.3-93.6,7.5-119.1c-16.8-25.5-42.6-55.2-49-79.9S1190,543.3,1183,530.8z"/>
	<g id="XMLID_113_">
		<path id="XMLID_105_" fill="#95AA3B" d="M1132.8,818.8c0,0.1-0.5-0.8-1.2-2.3c-0.7-1.4-1.6-3.6-2.6-6.3c-0.9-2.8-1.9-6.1-2.8-10.1
			c-0.8-3.9-1.7-8.4-2.2-13.3c-0.3-2.4-0.4-5-0.6-7.6c-0.1-2.6-0.2-5.4-0.2-8.2c0-2.8,0-5.7,0.2-8.6c0.1-1.5,0.1-2.9,0.3-4.5
			c0.2-1.5,0.2-2.9,0.4-4.5c0.7-6.2,1.9-12.4,3.3-18.6c1.4-6.2,3.1-12.5,4.9-18.7c1.8-6.2,3.8-12.3,5.8-18.3c2-6,4-11.9,6.1-17.5
			c2.1-5.6,4.1-11.1,6.2-16.2c2-5.1,4-9.9,5.9-14.4c3.7-8.9,7-16.2,9.2-21.3c2.3-5.1,3.6-8.1,3.6-8.1s-0.2,0.8-0.6,2.2
			c-0.4,1.5-0.9,3.6-1.7,6.3c-1.5,5.4-3.9,13.1-6.9,22.2c-1.5,4.6-3.1,9.5-4.8,14.7c-1.7,5.2-3.5,10.7-5.4,16.4
			c-1.8,5.7-3.8,11.6-5.7,17.5c-1.9,6-3.7,12.1-5.3,18.2c-1.7,6.1-3.3,12.3-4.6,18.3c-1.3,6.1-2.4,12.1-3.1,17.8
			c-0.2,1.4-0.3,2.9-0.4,4.4c-0.1,1.3-0.2,2.8-0.2,4.2c-0.2,2.8-0.2,5.6-0.3,8.3c-0.1,2.7,0.1,5.3,0.1,7.8c0.2,2.5,0.2,5,0.5,7.3
			c0.3,4.7,1,8.9,1.7,12.6c0.7,3.7,1.6,6.9,2.3,9.5c0.8,2.6,1.5,4.5,2.1,5.8c0.6,1.3,0.8,1.8,0.9,1.9L1132.8,818.8z"/>
		<path id="XMLID_112_" fill="#95AA3B" d="M1127.4,751.8c0,0,1.3-0.3,3.5-0.9c1.1-0.3,2.5-0.7,4-1.1c0.8-0.2,1.6-0.5,2.4-0.7
			c0.8-0.3,1.7-0.6,2.6-0.9c1.9-0.6,3.8-1.4,5.9-2.3c2.1-0.8,4.2-1.9,6.4-2.9c2.2-1.1,4.4-2.3,6.7-3.6c2.3-1.2,4.4-2.7,6.6-4.1
			c2.1-1.5,4.3-3,6.3-4.6c2.1-1.5,4-3.2,5.9-4.8c1.8-1.7,3.6-3.3,5.2-4.9c1.6-1.6,3.1-3.1,4.4-4.7c0.7-0.7,1.3-1.5,1.9-2.1
			c0.6-0.7,1.1-1.4,1.6-2c1-1.2,1.9-2.3,2.6-3.3c1.4-1.9,2.2-2.9,2.2-2.9s-0.7,1.1-2,3c-0.6,1-1.4,2.1-2.4,3.4
			c-0.5,0.7-1,1.3-1.5,2.1c-0.6,0.7-1.2,1.5-1.8,2.2c-1.2,1.6-2.6,3.2-4.2,4.9c-1.5,1.7-3.2,3.4-5,5.2c-1.8,1.7-3.7,3.5-5.7,5.2
			c-2,1.8-4.1,3.4-6.2,5c-2.2,1.5-4.3,3.2-6.6,4.5c-2.2,1.5-4.4,2.7-6.6,4c-2.2,1.2-4.3,2.4-6.4,3.3c-2.1,1-4.1,1.9-5.9,2.7
			c-0.9,0.4-1.8,0.8-2.7,1.1c-0.9,0.3-1.7,0.6-2.5,0.9c-1.6,0.6-2.9,1.1-4,1.4c-2.2,0.7-3.5,1.1-3.5,1.1L1127.4,751.8z"/>
		<path id="XMLID_106_" fill="#95AA3B" d="M1127.1,748.1c0,0-0.8-1-2.2-2.8c-0.7-0.9-1.5-2-2.4-3.3c-0.9-1.3-2-2.7-3.1-4.3
			c-1.1-1.6-2.3-3.3-3.5-5.2c-1.2-1.8-2.4-3.9-3.7-5.9c-1.2-2.1-2.5-4.2-3.6-6.5c-1.2-2.2-2.3-4.5-3.5-6.8c-1.1-2.3-2.2-4.6-3.2-7
			c-1-2.3-1.9-4.6-2.8-6.8c-0.8-2.3-1.7-4.4-2.4-6.5c-0.7-2.1-1.4-4.1-1.9-5.9c-0.6-1.8-1.1-3.5-1.5-5c-0.4-1.5-0.8-2.8-1-3.9
			c-0.5-2.2-0.8-3.4-0.8-3.4s0.4,1.2,1,3.4c0.3,1.1,0.7,2.4,1.2,3.8c0.5,1.5,1.1,3.1,1.7,4.9c0.6,1.8,1.4,3.7,2.2,5.8
			c0.8,2,1.8,4.1,2.7,6.3c1,2.2,2,4.4,3.2,6.6c1.1,2.3,2.3,4.5,3.5,6.7c1.3,2.2,2.5,4.4,3.8,6.5c1.3,2.1,2.6,4.2,3.9,6.2
			c1.3,2,2.6,3.9,3.9,5.6c1.3,1.8,2.5,3.4,3.7,4.9c1.1,1.5,2.2,2.9,3.2,4c1,1.2,1.8,2.2,2.6,3.1c1.5,1.7,2.3,2.7,2.3,2.7
			L1127.1,748.1z"/>
		<path id="XMLID_114_" fill="#95AA3B" d="M1135.9,703.5c0,0,0.8-0.5,2.3-1.3c1.5-0.9,3.5-2,6-3.6c1.2-0.8,2.5-1.6,3.9-2.5
			c1.4-0.9,2.8-1.9,4.3-2.9c3-2.1,6-4.4,9.1-6.8c3-2.4,6-4.9,8.7-7.3c1.3-1.2,2.6-2.4,3.8-3.6c1.2-1.1,2.3-2.2,3.4-3.3
			c2.1-2,3.7-3.8,4.9-5.1c1.2-1.2,1.8-2,1.8-2s-0.6,0.8-1.7,2.1c-1.1,1.3-2.6,3.2-4.5,5.4c-1,1.1-2,2.3-3.1,3.5
			c-1.1,1.2-2.4,2.5-3.6,3.8c-2.5,2.6-5.3,5.3-8.2,8c-2.9,2.6-5.9,5.2-8.7,7.5c-1.4,1.1-2.8,2.3-4.2,3.3c-1.3,1-2.6,2-3.8,2.8
			c-2.4,1.7-4.4,3.1-5.8,4.1c-1.4,0.9-2.2,1.5-2.2,1.5L1135.9,703.5z"/>
		<path id="XMLID_107_" fill="#95AA3B" d="M1148.9,670.2c0,0-0.4-0.5-1-1.4c-0.6-0.9-1.6-2.2-2.6-3.8c-0.5-0.8-1-1.7-1.6-2.6
			c-0.6-0.9-1.1-2-1.6-3c-1.1-2.1-2.1-4.4-3.1-6.7c-0.9-2.3-1.8-4.7-2.5-6.9c-0.3-1.1-0.7-2.2-0.9-3.2c-0.3-1-0.5-2-0.7-2.9
			c-0.4-1.8-0.7-3.3-0.8-4.4c-0.2-1.1-0.3-1.7-0.3-1.7s0.2,0.6,0.4,1.6c0.3,1,0.7,2.5,1.3,4.3c0.3,0.9,0.6,1.8,1,2.8
			c0.4,1,0.8,2,1.2,3.1c0.9,2.1,2,4.3,3.1,6.5c1.2,2.1,2.4,4.2,3.7,6.1c0.6,0.9,1.3,1.9,1.9,2.7c0.6,0.8,1.2,1.6,1.8,2.3
			c1.1,1.4,2.1,2.5,2.8,3.3c0.7,0.8,1.1,1.3,1.1,1.3L1148.9,670.2z"/>
	</g>
</g>
</svg>
